<?xml version="1.0" encoding="UTF-8" standalone="no"?>
<svg
   xmlns:dc="http://purl.org/dc/elements/1.1/"
   xmlns:cc="http://creativecommons.org/ns#"
   xmlns:rdf="http://www.w3.org/1999/02/22-rdf-syntax-ns#"
   xmlns:svg="http://www.w3.org/2000/svg"
   xmlns="http://www.w3.org/2000/svg"
   xmlns:sodipodi="http://sodipodi.sourceforge.net/DTD/sodipodi-0.dtd"
   xmlns:inkscape="http://www.inkscape.org/namespaces/inkscape"
   version="1.1"
   id="svg4830"
   inkscape:version="0.91 r13725"
   sodipodi:docname="Log_(2).svg"
   width="386.19336"
   height="385.34598">
  <metadata
     id="metadata5104">
    <rdf:RDF>
      <cc:Work
         rdf:about="">
        <dc:format>image/svg+xml</dc:format>
        <dc:type
           rdf:resource="http://purl.org/dc/dcmitype/StillImage" />
        <dc:title />
      </cc:Work>
    </rdf:RDF>
  </metadata>
  <sodipodi:namedview
     pagecolor="#ffffff"
     bordercolor="#666666"
     borderopacity="1"
     objecttolerance="10"
     gridtolerance="10"
     guidetolerance="10"
     inkscape:pageopacity="0"
     inkscape:pageshadow="2"
     inkscape:window-width="1280"
     inkscape:window-height="961"
     id="namedview5102"
     showgrid="false"
     fit-margin-top="0"
     fit-margin-left="0"
     fit-margin-right="0"
     fit-margin-bottom="0"
     inkscape:zoom="2.36"
     inkscape:cx="179.44549"
     inkscape:cy="160.02659"
     inkscape:window-x="-8"
     inkscape:window-y="-8"
     inkscape:window-maximized="1"
     inkscape:current-layer="svg4830"
     inkscape:snap-global="false"
     showguides="false" />
  <g
     id="g4834"
     clip-path="url(#cp1)"
     transform="translate(-175.18093,4.975318)"
     style="stroke:#FFFFFF">
    <clipPath
       id="cp1">
      <polygon
         id="polygon4837"
         points="553,364 553,5 194,5 194,364 " />
    </clipPath>
    <path
       style="fill:none;stroke:#FFFFFF;stroke-width:0.1875px;stroke-opacity:1"
       d="m 201.25,363.875 0,-358.75"
       id="polyline4839" />
    <path
       style="fill:none;stroke:#FFFFFF;stroke-width:0.1875px;stroke-opacity:1"
       d="m 235.75,363.875 0,-358.75"
       id="polyline4841" />
    <path
       style="fill:none;stroke:#FFFFFF;stroke-width:0.1875px;stroke-opacity:1"
       d="m 270.188,363.875 0,-358.75"
       id="polyline4843" />
    <path
       style="fill:none;stroke:#FFFFFF;stroke-width:0.1875px;stroke-opacity:1"
       d="m 304.625,363.875 0,-358.75"
       id="polyline4845" />
    <path
       style="fill:none;stroke:#FFFFFF;stroke-width:0.1875px;stroke-opacity:1"
       d="m 339.062,363.875 0,-358.75"
       id="polyline4847" />
    <path
       style="fill:none;stroke:#FFFFFF;stroke-width:0.1875px;stroke-opacity:1"
       d="m 373.5,363.875 0,-358.75"
       id="polyline4849" />
    <path
       style="fill:none;stroke:#FFFFFF;stroke-width:0.1875px;stroke-opacity:1"
       d="m 407.938,363.875 0,-358.75"
       id="polyline4851" />
    <path
       style="fill:none;stroke:#FFFFFF;stroke-width:0.1875px;stroke-opacity:1"
       d="m 442.375,363.875 0,-358.75"
       id="polyline4853" />
    <path
       style="fill:none;stroke:#FFFFFF;stroke-width:0.1875px;stroke-opacity:1"
       d="m 476.812,363.875 0,-358.75"
       id="polyline4855" />
    <path
       style="fill:none;stroke:#FFFFFF;stroke-width:0.1875px;stroke-opacity:1"
       d="m 511.25,363.875 0,-358.75"
       id="polyline4857" />
    <path
       style="fill:none;stroke:#FFFFFF;stroke-width:0.1875px;stroke-opacity:1"
       d="m 545.75,363.875 0,-358.75"
       id="polyline4859" />
    <path
       style="fill:none;stroke:#FFFFFF;stroke-width:0.1875px;stroke-opacity:1"
       d="m 201.22246,363.875 351.65254,0"
       id="polyline4861"
       inkscape:connector-curvature="0"
       sodipodi:nodetypes="cc" />
    <path
       style="fill:none;stroke:#FFFFFF;stroke-width:0.1875px;stroke-opacity:1"
       d="M 201.22246,328 552.875,328"
       id="polyline4863"
       inkscape:connector-curvature="0"
       sodipodi:nodetypes="cc" />
    <path
       style="fill:none;stroke:#FFFFFF;stroke-width:0.1875px;stroke-opacity:1"
       d="m 201.22246,292.125 351.65254,0"
       id="polyline4865"
       inkscape:connector-curvature="0"
       sodipodi:nodetypes="cc" />
    <path
       style="fill:none;stroke:#FFFFFF;stroke-width:0.1875px;stroke-opacity:1"
       d="m 201.22246,256.25 351.65254,0"
       id="polyline4867"
       inkscape:connector-curvature="0"
       sodipodi:nodetypes="cc" />
    <path
       style="fill:none;stroke:#FFFFFF;stroke-width:0.1875px;stroke-opacity:1"
       d="m 201.22246,220.375 351.65254,0"
       id="polyline4869"
       inkscape:connector-curvature="0"
       sodipodi:nodetypes="cc" />
    <path
       style="fill:none;stroke:#FFFFFF;stroke-width:0.1875px;stroke-opacity:1"
       d="m 201.22246,184.5 351.65254,0"
       id="polyline4871"
       inkscape:connector-curvature="0"
       sodipodi:nodetypes="cc" />
    <path
       style="fill:none;stroke:#FFFFFF;stroke-width:0.1875px;stroke-opacity:1"
       clip-path="none"
       d="m 201.22246,148.625 351.65254,0"
       id="polyline4873"
       inkscape:connector-curvature="0"
       sodipodi:nodetypes="cc" />
    <path
       style="fill:none;stroke:#FFFFFF;stroke-width:0.1875px;stroke-opacity:1"
       d="m 201.16611,112.75 351.70889,0"
       id="polyline4875"
       inkscape:connector-curvature="0"
       sodipodi:nodetypes="cc" />
    <path
       style="fill:none;stroke:#FFFFFF;stroke-width:0.1875px;stroke-opacity:1"
       d="m 201.22246,76.875 351.65254,0"
       id="polyline4877"
       inkscape:connector-curvature="0"
       sodipodi:nodetypes="cc" />
    <path
       style="fill:none;stroke:#FFFFFF;stroke-width:0.1875px;stroke-opacity:1"
       d="M 201.22246,41 552.875,41"
       id="polyline4879"
       inkscape:connector-curvature="0"
       sodipodi:nodetypes="cc" />
    <path
       style="fill:none;stroke:#FFFFFF;stroke-width:0.1875px;stroke-opacity:1"
       d="m 201.22246,5.125 351.65254,0"
       id="polyline4881"
       inkscape:connector-curvature="0"
       sodipodi:nodetypes="cc" />
  </g>
  <g
     id="g4981"
     clip-path="url(#cp12)"
     transform="translate(-175.18093,4.975318)"
     style="stroke:#FFFFFF">
    <clipPath
       id="cp12">
      <polygon
         id="polygon4984"
         points="554,365 554,5 194,5 194,365 " />
    </clipPath>
    <path
       transform="translate(0,251.10134)"
       style="fill:none;stroke:#FFFFFF;stroke-width:0.6;stroke-opacity:1;stroke-miterlimit:4;stroke-dasharray:none"
       d="m 528.5,112.75 0,-2.438"
       id="polyline4986" />
    <path
       transform="translate(0,251.10134)"
       style="fill:none;stroke:#FFFFFF;stroke-width:0.6;stroke-opacity:1;stroke-miterlimit:4;stroke-dasharray:none"
       d="m 545.75,112.75 0,-2.438"
       id="polyline4988" />
    <path
       style="fill:none;stroke:#FFFFFF;stroke-width:0.6;stroke-opacity:1;stroke-miterlimit:4;stroke-dasharray:none"
       d="m 201.22246,363.875 351.65254,0"
       id="polyline4990"
       inkscape:connector-curvature="0"
       sodipodi:nodetypes="cc" />
    <path
       sodipodi:nodetypes="cc"
       inkscape:connector-curvature="0"
       id="path6762"
       d="m 201.22246,112.75 351.65254,0"
       style="fill:none;stroke:#FFFFFF;stroke-width:0.6;stroke-opacity:1;stroke-miterlimit:4;stroke-dasharray:none" />
  </g>
  <g
     id="g4998"
     clip-path="url(#cp13)"
     transform="translate(-183.99403,139.99532)"
     style="stroke:none">
    <clipPath
       id="cp13">
      <polygon
         id="polygon5001"
         points="208,186 193,186 193,200 208,200 " />
    </clipPath>
    <text
       style="font-size:10px;font-family:SVGTimes;fill:#FFFFFF;stroke:none"
       id="text5003"
       font-size="10px"
       y="195"
       x="194">-</text>
    <text
       style="font-size:10px;font-family:Times;fill:#FFFFFF;stroke:none"
       id="text5005"
       font-size="10px"
       y="195"
       x="201.562">6</text>
  </g>
  <g
     id="g5007"
     clip-path="url(#cp14)"
     transform="translate(-209.71483,4.975318)"
     style="stroke:#FFFFFF">
    <clipPath
       id="cp14">
      <polygon
         id="polygon5010"
         points="554,5 194,5 194,365 554,365 " />
    </clipPath>
  </g>
  <g
     id="g5020"
     clip-path="url(#cp15)"
     transform="translate(-183.99403,68.235318)"
     style="stroke:none">
    <clipPath
       id="cp15">
      <polygon
         id="polygon5023"
         points="208,186 193,186 193,200 208,200 " />
    </clipPath>
    <text
       style="font-size:10px;font-family:SVGTimes;fill:#FFFFFF;stroke:none"
       id="text5025"
       font-size="10px"
       y="195"
       x="194">-</text>
    <text
       style="font-size:10px;font-family:Times;fill:#FFFFFF;stroke:none"
       id="text5027"
       font-size="10px"
       y="195"
       x="201.562">4</text>
  </g>
  <g
     id="g5029"
     clip-path="url(#cp16)"
     transform="translate(-209.71483,4.975318)"
     style="stroke:#FFFFFF">
    <clipPath
       id="cp16">
      <polygon
         id="polygon5032"
         points="554,5 194,5 194,365 554,365 " />
    </clipPath>
  </g>
  <g
     id="g5042"
     clip-path="url(#cp17)"
     transform="translate(-183.99403,-3.524682)"
     style="stroke:none">
    <clipPath
       id="cp17">
      <polygon
         id="polygon5045"
         points="208,186 193,186 193,200 208,200 " />
    </clipPath>
    <text
       style="font-size:10px;font-family:SVGTimes;fill:#FFFFFF;stroke:none"
       id="text5047"
       font-size="10px"
       y="195"
       x="194">-</text>
    <text
       style="font-size:10px;font-family:Times;fill:#FFFFFF;stroke:none"
       id="text5049"
       font-size="10px"
       y="195"
       x="201.562">2</text>
  </g>
  <g
     id="g5051"
     clip-path="url(#cp18)"
     transform="translate(-209.71483,4.975318)"
     style="stroke:#FFFFFF">
    <clipPath
       id="cp18">
      <polygon
         id="polygon5054"
         points="554,5 194,5 194,365 554,365 " />
    </clipPath>
  </g>
  <g
     id="g5064"
     clip-path="url(#cp19)"
     transform="translate(-209.71483,4.975318)"
     style="stroke:#FFFFFF">
    <clipPath
       id="cp19">
      <polygon
         id="polygon5067"
         points="554,5 194,5 194,365 554,365 " />
    </clipPath>
  </g>
  <g
     id="g5077"
     clip-path="url(#cp20)"
     transform="translate(-175.99403,-147.04468)"
     style="stroke:none">
    <clipPath
       id="cp20">
      <polygon
         id="polygon5080"
         points="200,186 193,186 193,200 200,200 " />
    </clipPath>
    <text
       style="font-size:10px;font-family:Times;fill:#FFFFFF;stroke:none"
       id="text5082"
       font-size="10px"
       y="195"
       x="194">2</text>
  </g>
  <g
     id="g5084"
     clip-path="url(#cp21)"
     transform="translate(-209.71483,4.975318)"
     style="stroke:#FFFFFF">
    <clipPath
       id="cp21">
      <polygon
         id="polygon5087"
         points="554,5 194,5 194,365 554,365 " />
    </clipPath>
    <g
       id="g4450">
      <path
         id="polyline6764"
         d="m 235.75,363.875 0,-358.75"
         style="fill:none;stroke:#FFFFFF;stroke-width:0.6;stroke-opacity:1;stroke-miterlimit:4;stroke-dasharray:none"
         transform="translate(34.5339,0)" />
      <g
         style="stroke:#FFFFFF;stroke-width:0.6;stroke-miterlimit:4;stroke-dasharray:none"
         id="g4426">
        <path
           transform="translate(-0.09375,0)"
           style="stroke:#FFFFFF;fill:none;stroke-width:0.6;stroke-opacity:1;stroke-miterlimit:4;stroke-dasharray:none"
           d="m 235.75,363.875 2.375,0"
           id="polyline4992" />
        <path
           transform="translate(-0.09375,0)"
           style="stroke:#FFFFFF;fill:none;stroke-width:0.6;stroke-opacity:1;stroke-miterlimit:4;stroke-dasharray:none"
           d="m 235.75,345.938 2.375,0"
           id="polyline4994" />
        <path
           transform="translate(-0.09375,0)"
           style="stroke:#FFFFFF;fill:none;stroke-width:0.6;stroke-opacity:1;stroke-miterlimit:4;stroke-dasharray:none"
           d="m 235.75,328 4,0"
           id="polyline4996" />
        <path
           style="stroke:#FFFFFF;fill:none;stroke-width:0.6;stroke-opacity:1;stroke-miterlimit:4;stroke-dasharray:none"
           d="m 235.75,310.062 2.375,0"
           id="polyline5012" />
        <path
           style="stroke:#FFFFFF;fill:none;stroke-width:0.6;stroke-opacity:1;stroke-miterlimit:4;stroke-dasharray:none"
           d="m 235.75,292.125 2.375,0"
           id="polyline5014" />
        <path
           style="stroke:#FFFFFF;fill:none;stroke-width:0.6;stroke-opacity:1;stroke-miterlimit:4;stroke-dasharray:none"
           d="m 235.75,274.188 2.375,0"
           id="polyline5016" />
        <path
           style="stroke:#FFFFFF;fill:none;stroke-width:0.6;stroke-opacity:1;stroke-miterlimit:4;stroke-dasharray:none"
           d="m 235.75,256.25 4,0"
           id="polyline5018" />
        <path
           style="stroke:#FFFFFF;fill:none;stroke-width:0.6;stroke-opacity:1;stroke-miterlimit:4;stroke-dasharray:none"
           d="m 235.75,238.312 2.375,0"
           id="polyline5034" />
        <path
           style="stroke:#FFFFFF;fill:none;stroke-width:0.6;stroke-opacity:1;stroke-miterlimit:4;stroke-dasharray:none"
           d="m 235.75,220.375 2.375,0"
           id="polyline5036" />
        <path
           style="stroke:#FFFFFF;fill:none;stroke-width:0.6;stroke-opacity:1;stroke-miterlimit:4;stroke-dasharray:none"
           d="m 235.75,202.438 2.375,0"
           id="polyline5038" />
        <path
           style="stroke:#FFFFFF;fill:none;stroke-width:0.6;stroke-opacity:1;stroke-miterlimit:4;stroke-dasharray:none"
           d="m 235.75,184.5 4,0"
           id="polyline5040" />
        <path
           style="stroke:#FFFFFF;fill:none;stroke-width:0.6;stroke-opacity:1;stroke-miterlimit:4;stroke-dasharray:none"
           d="m 235.75,166.562 2.375,0"
           id="polyline5056" />
        <path
           style="stroke:#FFFFFF;fill:none;stroke-width:0.6;stroke-opacity:1;stroke-miterlimit:4;stroke-dasharray:none"
           d="m 235.75,148.625 2.375,0"
           id="polyline5058" />
        <path
           style="stroke:#FFFFFF;fill:none;stroke-width:0.6;stroke-opacity:1;stroke-miterlimit:4;stroke-dasharray:none"
           d="m 235.75,130.688 2.375,0"
           id="polyline5060" />
        <path
           style="stroke:#FFFFFF;fill:none;stroke-width:0.6;stroke-opacity:1;stroke-miterlimit:4;stroke-dasharray:none"
           d="m 235.75,112.75 4,0"
           id="polyline5062" />
        <path
           style="stroke:#FFFFFF;fill:none;stroke-width:0.6;stroke-opacity:1;stroke-miterlimit:4;stroke-dasharray:none"
           d="m 235.75,94.8125 2.375,0"
           id="polyline5069" />
        <path
           style="stroke:#FFFFFF;fill:none;stroke-width:0.6;stroke-opacity:1;stroke-miterlimit:4;stroke-dasharray:none"
           d="m 235.75,76.875 2.375,0"
           id="polyline5071" />
        <path
           style="stroke:#FFFFFF;fill:none;stroke-width:0.6;stroke-opacity:1;stroke-miterlimit:4;stroke-dasharray:none"
           d="m 235.75,58.9375 2.375,0"
           id="polyline5073" />
        <path
           style="stroke:#FFFFFF;fill:none;stroke-width:0.6;stroke-opacity:1;stroke-miterlimit:4;stroke-dasharray:none"
           d="m 235.75,41 4,0"
           id="polyline5075" />
        <path
           style="fill:none;stroke:#FFFFFF;stroke-width:0.6;stroke-opacity:1;stroke-miterlimit:4;stroke-dasharray:none"
           d="m 235.75,23.0625 2.375,0"
           id="polyline5089" />
        <path
           style="fill:none;stroke:#FFFFFF;stroke-width:0.6;stroke-opacity:1;stroke-miterlimit:4;stroke-dasharray:none"
           d="m 235.75,5.125 2.375,0"
           id="polyline5091" />
        <path
           style="fill:none;stroke:#FFFFFF;stroke-width:0.6;stroke-opacity:1;stroke-miterlimit:4;stroke-dasharray:none"
           d="m 235.75,363.875 0,-358.75"
           id="polyline5093" />
      </g>
    </g>
  </g>
  <defs
     id="defs5095" />
  <rect
     style="opacity:1;fill:none;fill-opacity:1;fill-rule:nonzero;stroke:#FFFFFF;stroke-width:0.60000002;stroke-linecap:square;stroke-linejoin:round;stroke-miterlimit:4;stroke-dasharray:none;stroke-dashoffset:0;stroke-opacity:1"
     id="rect6555"
     width="385.59335"
     height="384.74597"
     x="0.30000001"
     y="0.30000001" />
  <g
     id="g4890"
     clip-path="url(#cp3)"
     transform="translate(-175.18093,256.14606)"
     style="stroke:#FFFFFF">
    <clipPath
       id="cp3">
      <polygon
         id="polygon4893"
         points="554,5 194,5 194,365 554,365 " />
    </clipPath>
    <path
       style="fill:none;stroke:#FFFFFF;stroke-width:0.6;stroke-opacity:1;stroke-miterlimit:4;stroke-dasharray:none"
       d="m 201.25,112.75 0,-2.438"
       id="polyline4895" />
    <path
       style="fill:none;stroke:#FFFFFF;stroke-width:0.6;stroke-opacity:1;stroke-miterlimit:4;stroke-dasharray:none"
       d="m 218.5,112.75 0,-2.438"
       id="polyline4897" />
    <path
       style="fill:none;stroke:#FFFFFF;stroke-width:0.6;stroke-opacity:1;stroke-miterlimit:4;stroke-dasharray:none"
       d="m 235.75,112.75 0,-4"
       id="polyline4899" />
  </g>
  <g
     id="g4901"
     clip-path="url(#cp4)"
     transform="translate(-175.18093,256.14606)"
     style="stroke:#FFFFFF">
    <clipPath
       id="cp4">
      <polygon
         id="polygon4904"
         points="554,5 194,5 194,365 554,365 " />
    </clipPath>
    <path
       style="fill:none;stroke:#FFFFFF;stroke-width:0.6;stroke-opacity:1;stroke-miterlimit:4;stroke-dasharray:none"
       d="m 252.938,112.75 0,-2.438"
       id="polyline4906" />
    <path
       style="fill:none;stroke:#FFFFFF;stroke-width:0.6;stroke-opacity:1;stroke-miterlimit:4;stroke-dasharray:none"
       d="m 270.188,112.75 0,-2.438"
       id="polyline4908" />
    <path
       style="fill:none;stroke:#FFFFFF;stroke-width:0.6;stroke-opacity:1;stroke-miterlimit:4;stroke-dasharray:none"
       d="m 287.375,112.75 0,-2.438"
       id="polyline4910" />
    <path
       style="fill:none;stroke:#FFFFFF;stroke-width:0.6;stroke-opacity:1;stroke-miterlimit:4;stroke-dasharray:none"
       d="m 304.625,112.75 0,-4"
       id="polyline4912" />
  </g>
  <g
     id="g4914"
     clip-path="url(#cp5)"
     transform="translate(-67.070533,184.88606)"
     style="stroke:none">
    <clipPath
       id="cp5">
      <polygon
         id="polygon4917"
         points="200,186 193,186 193,200 200,200 " />
    </clipPath>
    <text
       style="font-size:10px;font-family:Times;fill:#FFFFFF;stroke:none"
       id="text4919"
       font-size="10px"
       y="195"
       x="194">2</text>
  </g>
  <g
     id="g4921"
     clip-path="url(#cp6)"
     transform="translate(-175.18093,256.14606)"
     style="stroke:#FFFFFF">
    <clipPath
       id="cp6">
      <polygon
         id="polygon4924"
         points="554,5 194,5 194,365 554,365 " />
    </clipPath>
    <path
       style="fill:none;stroke:#FFFFFF;stroke-width:0.6;stroke-opacity:1;stroke-miterlimit:4;stroke-dasharray:none"
       d="m 321.812,112.75 0,-2.438"
       id="polyline4926" />
    <path
       style="fill:none;stroke:#FFFFFF;stroke-width:0.6;stroke-opacity:1;stroke-miterlimit:4;stroke-dasharray:none"
       d="m 339.062,112.75 0,-2.438"
       id="polyline4928" />
    <path
       style="fill:none;stroke:#FFFFFF;stroke-width:0.6;stroke-opacity:1;stroke-miterlimit:4;stroke-dasharray:none"
       d="m 356.25,112.75 0,-2.438"
       id="polyline4930" />
    <path
       style="fill:none;stroke:#FFFFFF;stroke-width:0.6;stroke-opacity:1;stroke-miterlimit:4;stroke-dasharray:none"
       d="m 373.5,112.75 0,-4"
       id="polyline4932" />
  </g>
  <g
     id="g4934"
     clip-path="url(#cp7)"
     transform="translate(1.8190673,184.88606)"
     style="stroke:none">
    <clipPath
       id="cp7">
      <polygon
         id="polygon4937"
         points="200,186 193,186 193,200 200,200 " />
    </clipPath>
    <text
       style="font-size:10px;font-family:Times;fill:#FFFFFF;stroke:none"
       id="text4939"
       font-size="10px"
       y="195"
       x="194">4</text>
  </g>
  <g
     id="g4941"
     clip-path="url(#cp8)"
     transform="translate(-175.18093,256.14606)"
     style="stroke:#FFFFFF">
    <clipPath
       id="cp8">
      <polygon
         id="polygon4944"
         points="554,5 194,5 194,365 554,365 " />
    </clipPath>
    <path
       style="fill:none;stroke:#FFFFFF;stroke-width:0.6;stroke-opacity:1;stroke-miterlimit:4;stroke-dasharray:none"
       d="m 390.75,112.75 0,-2.438"
       id="polyline4946" />
    <path
       style="fill:none;stroke:#FFFFFF;stroke-width:0.6;stroke-opacity:1;stroke-miterlimit:4;stroke-dasharray:none"
       d="m 407.938,112.75 0,-2.438"
       id="polyline4948" />
    <path
       style="fill:none;stroke:#FFFFFF;stroke-width:0.6;stroke-opacity:1;stroke-miterlimit:4;stroke-dasharray:none"
       d="m 425.188,112.75 0,-2.438"
       id="polyline4950" />
    <path
       style="fill:none;stroke:#FFFFFF;stroke-width:0.6;stroke-opacity:1;stroke-miterlimit:4;stroke-dasharray:none"
       d="m 442.375,112.75 0,-4"
       id="polyline4952" />
  </g>
  <g
     id="g4954"
     clip-path="url(#cp9)"
     transform="translate(70.708667,184.88606)"
     style="stroke:none">
    <clipPath
       id="cp9">
      <polygon
         id="polygon4957"
         points="200,186 193,186 193,200 200,200 " />
    </clipPath>
    <text
       style="font-size:10px;font-family:Times;fill:#FFFFFF;stroke:none"
       id="text4959"
       font-size="10px"
       y="195"
       x="194">6</text>
  </g>
  <g
     id="g4961"
     clip-path="url(#cp10)"
     transform="translate(-175.18093,256.14606)"
     style="stroke:#FFFFFF">
    <clipPath
       id="cp10">
      <polygon
         id="polygon4964"
         points="554,5 194,5 194,365 554,365 " />
    </clipPath>
    <path
       style="fill:none;stroke:#FFFFFF;stroke-width:0.6;stroke-opacity:1;stroke-miterlimit:4;stroke-dasharray:none"
       d="m 459.625,112.75 0,-2.438"
       id="polyline4966" />
    <path
       style="fill:none;stroke:#FFFFFF;stroke-width:0.6;stroke-opacity:1;stroke-miterlimit:4;stroke-dasharray:none"
       d="m 476.812,112.75 0,-2.438"
       id="polyline4968" />
    <path
       style="fill:none;stroke:#FFFFFF;stroke-width:0.6;stroke-opacity:1;stroke-miterlimit:4;stroke-dasharray:none"
       d="m 494.062,112.75 0,-2.438"
       id="polyline4970" />
    <path
       style="fill:none;stroke:#FFFFFF;stroke-width:0.6;stroke-opacity:1;stroke-miterlimit:4;stroke-dasharray:none"
       d="m 511.25,112.75 0,-4"
       id="polyline4972" />
  </g>
  <g
     id="g4974"
     clip-path="url(#cp11)"
     transform="translate(139.59827,184.88606)"
     style="stroke:none">
    <clipPath
       id="cp11">
      <polygon
         id="polygon4977"
         points="200,186 193,186 193,200 200,200 " />
    </clipPath>
    <text
       style="font-size:10px;font-family:Times;fill:#FFFFFF;stroke:none"
       id="text4979"
       font-size="10px"
       y="195"
       x="194">8</text>
  </g>
  <g
     transform="translate(-175.99403,-73.864055)"
     clip-path="url(#cp20)"
     id="g6557"
     style="stroke:none">
    <clipPath
       id="clipPath6559">
      <polygon
         points="200,186 193,186 193,200 200,200 "
         id="polygon6561" />
    </clipPath>
    <text
       x="194"
       y="195"
       font-size="10px"
       id="text6563"
       style="font-size:10px;font-family:Times;fill:#FFFFFF;stroke:none">0</text>
  </g>
  <g
     id="g6567"
     clip-path="url(#cp20)"
     transform="translate(-135.84572,184.76887)"
     style="stroke:none">
    <clipPath
       id="clipPath6569">
      <polygon
         id="polygon6571"
         points="193,186 193,200 200,200 200,186 " />
    </clipPath>
    <text
       style="font-size:10px;font-family:Times;fill:#FFFFFF;stroke:none"
       id="text6573"
       font-size="10px"
       y="195"
       x="194">0</text>
  </g>
  <g
     id="g4883"
     clip-path="url(#cp2)"
     transform="translate(-175.18093,4.975318)">
    <clipPath
       id="cp2">
      <polygon
         id="polygon4886"
         points="553,364 553,5 194,5 194,364 " />
    </clipPath>
    <polyline
       style="fill:none;stroke:#ff0000;stroke-width:2px;stroke-opacity:1"
       id="polyline4888"
       points="235.75,363.875 235.875,311.062 236,289.375 236.062,275.938 236.188,266.188 236.312,259 236.438,253 236.5,247.875 236.625,243.375 236.75,239.438 236.812,235.812 236.938,232.562 237.062,229.562 237.125,226.812 237.25,224.25 237.5,219.625 237.562,217.5 237.688,215.5 237.875,211.812 238,210.125 238.125,208.5 238.312,205.438 238.438,204 238.562,202.625 238.75,200 238.875,198.75 238.938,197.562 239.188,195.312 239.625,191.125 239.688,190.188 239.812,189.25 240,187.375 240.438,184 240.562,183.25 240.688,182.438 240.875,180.938 241.312,178.125 241.375,177.438 241.5,176.75 241.688,175.438 242.125,173 243,168.562 243.125,168 243.25,167.438 243.438,166.375 243.938,164.25 244.812,160.438 244.938,160 245.062,159.562 245.312,158.688 245.75,157 246.688,153.875 246.812,153.5 246.875,153.125 247.125,152.375 247.562,150.938 248.5,148.25 250.375,143.438 250.438,143.188 250.562,142.938 250.812,142.375 251.25,141.312 252.188,139.25 253.938,135.562 254.062,135.312 254.188,135.125 254.438,134.688 254.875,133.812 255.75,132.125 257.562,129.062 257.688,128.875 257.812,128.688 258,128.375 258.438,127.688 259.25,126.375 260.938,123.938 261.062,123.75 261.188,123.625 261.375,123.312 261.812,122.75 262.625,121.562 264.312,119.438 264.438,119.25 264.562,119.125 264.75,118.812 265.25,118.312 266.125,117.188 268,115.125 271.625,111.25 271.75,111.125 271.875,111.062 272.062,110.812 272.5,110.375 273.312,109.562 275.062,108 278.438,105 285.125,99.8125 292.375,94.875 299.188,90.8125 306.5,86.875 313.75,83.4375 320.438,80.4375 327.75,77.5 334.562,74.9375 341.938,72.3125 349.188,70 355.938,67.875 363.25,65.75 370.062,63.875 376.75,62.1875 384.062,60.375 390.812,58.75 398.188,57.0625 405.375,55.5 412.125,54.125 419.438,52.6875 426.25,51.375 432.938,50.125 440.188,48.8125 446.938,47.6875 454.312,46.4375 461.125,45.3125 467.875,44.3125 475.125,43.1875 481.938,42.1875 489.312,41.125 496.562,40.125 503.25,39.1875 510.562,38.25 517.438,37.3125 524.125,36.5 531.375,35.625 538.188,34.8125 545.5,33.9375 545.5,33.9375 545.5,33.9375 545.5,33.9375 545.562,33.9375 545.562,33.9375 545.625,33.9375 545.625,33.9375 545.625,33.9375 545.625,33.9375 545.625,33.9375 545.688,33.9375 545.688,33.9375 545.688,33.9375 545.688,33.9375 545.688,33.9375 545.688,33.9375 545.688,33.875 545.688,33.875 545.688,33.875 545.688,33.875 545.75,33.875 545.75,33.875 " />
  </g>
</svg>
