<?xml version="1.0" encoding="UTF-8"?>
<!-- Generator: Adobe Illustrator 25.4.1, SVG Export Plug-In . SVG Version: 6.00 Build 0)  -->
<svg version="1.1" id="Layer_1" xmlns="http://www.w3.org/2000/svg" xmlns:xlink="http://www.w3.org/1999/xlink" x="0px" y="0px" viewBox="0 0 1122 728" style="enable-background:new 0 0 1122 728;" xml:space="preserve">
<style type="text/css">
	.st0{fill:#467AFF;}
	.st1{fill:#444444;}
</style>
<g>
	<path d="M512.41,33.14c-5.56,0-9.44-3.24-9.68-7.36h5.64c0.2,1.68,1.76,2.96,4,2.96c2.2,0,3.4-1,3.4-2.28   c0-3.96-12.52-1.44-12.52-9.56c0-3.68,3.28-6.64,8.76-6.64c5.36,0,8.6,2.92,8.92,7.32h-5.36c-0.16-1.72-1.52-2.88-3.72-2.88   c-2.08,0-3.16,0.84-3.16,2.12c0,4.04,12.28,1.52,12.44,9.64C521.13,30.27,517.81,33.14,512.41,33.14z"/>
	<path d="M525.13,4.71c0-1.84,1.44-3.28,3.44-3.28c1.96,0,3.44,1.44,3.44,3.28c0,1.84-1.48,3.28-3.44,3.28   C526.57,7.99,525.13,6.55,525.13,4.71z M525.73,10.63h5.6v22.16h-5.6V10.63z"/>
	<path d="M552.37,20.55c0-3.56-1.96-5.48-4.92-5.48c-3.04,0-5,1.92-5,5.48v12.24h-5.6V10.63h5.6v2.76c1.44-1.88,3.84-3.08,6.68-3.08   c5.16,0,8.84,3.36,8.84,9.48v13h-5.6V20.55z"/>
</g>
<g>
	<path d="M834.34,88.75h15.09v3.96h-10.19v6.27h7.81v3.89h-7.81v10.33h-4.9V88.75z"/>
	<path d="M852.37,88.61c0-1.61,1.26-2.87,3.01-2.87c1.71,0,3.01,1.26,3.01,2.87c0,1.61-1.3,2.87-3.01,2.87   C853.63,91.48,852.37,90.22,852.37,88.61z M852.89,93.79h4.9v19.39h-4.9V93.79z"/>
	<path d="M867.52,113.18h-4.9V93.79h4.9v3.01c1.23-2,3.26-3.29,5.95-3.29v5.15h-1.29c-2.91,0-4.66,1.12-4.66,4.87V113.18z"/>
	<path d="M884.18,113.5c-4.87,0-8.26-2.84-8.47-6.44h4.94c0.17,1.47,1.54,2.59,3.5,2.59c1.93,0,2.98-0.88,2.98-2   c0-3.47-10.96-1.26-10.96-8.37c0-3.22,2.87-5.81,7.67-5.81c4.69,0,7.53,2.56,7.81,6.41h-4.69c-0.14-1.51-1.33-2.52-3.26-2.52   c-1.82,0-2.76,0.74-2.76,1.86c0,3.54,10.75,1.33,10.89,8.44C891.81,110.98,888.91,113.5,884.18,113.5z"/>
	<path d="M896.61,97.82h-2.31v-4.03h2.31V89h4.94v4.8h4.34v4.03h-4.34v9.38c0,1.3,0.52,1.86,2.07,1.86h2.27v4.13h-3.08   c-3.71,0-6.2-1.58-6.2-6.02V97.82z"/>
	<path d="M925.52,93.51c2.91,0,5.04,1.29,6.23,2.8v-2.52h4.94v28.63h-4.94v-11.9c-1.19,1.54-3.4,2.94-6.34,2.94   c-4.9,0-8.93-4.06-8.93-10.01S920.51,93.51,925.52,93.51z M926.6,97.78c-2.52,0-5.11,1.92-5.11,5.67c0,3.75,2.59,5.74,5.11,5.74   c2.55,0,5.15-1.96,5.15-5.71C931.75,99.74,929.16,97.78,926.6,97.78z"/>
	<path d="M959.78,113.18h-4.94v-2.45c-1.23,1.65-3.36,2.7-5.78,2.7c-4.52,0-7.77-2.94-7.77-8.26V93.79h4.9v10.68   c0,3.12,1.71,4.8,4.31,4.8c2.66,0,4.34-1.68,4.34-4.8V93.79h4.94V113.18z"/>
	<path d="M972.21,93.48c3.12,0,5.25,1.47,6.41,3.08v-2.77h4.94v19.39h-4.94v-2.84c-1.16,1.68-3.36,3.15-6.44,3.15   c-4.9,0-8.82-4.03-8.82-10.08S967.27,93.48,972.21,93.48z M973.47,97.78c-2.63,0-5.11,1.96-5.11,5.64s2.49,5.78,5.11,5.78   c2.7,0,5.15-2.03,5.15-5.71C978.61,99.81,976.16,97.78,973.47,97.78z"/>
	<path d="M995.97,93.48c2.56,0,5.01,1.19,6.34,3.01v-9.21h4.97v25.9h-4.97v-2.87c-1.16,1.79-3.33,3.19-6.37,3.19   c-4.94,0-8.86-4.03-8.86-10.08S991,93.48,995.97,93.48z M997.2,97.78c-2.63,0-5.11,1.96-5.11,5.64s2.48,5.78,5.11,5.78   c2.7,0,5.15-2.03,5.15-5.71C1002.34,99.81,999.89,97.78,997.2,97.78z"/>
	<path d="M1016.97,113.18h-4.9V93.79h4.9v3.01c1.23-2,3.26-3.29,5.95-3.29v5.15h-1.29c-2.91,0-4.66,1.12-4.66,4.87V113.18z"/>
	<path d="M1033.8,93.48c3.12,0,5.25,1.47,6.41,3.08v-2.77h4.94v19.39h-4.94v-2.84c-1.16,1.68-3.36,3.15-6.44,3.15   c-4.9,0-8.82-4.03-8.82-10.08S1028.87,93.48,1033.8,93.48z M1035.07,97.78c-2.63,0-5.11,1.96-5.11,5.64s2.48,5.78,5.11,5.78   c2.7,0,5.15-2.03,5.15-5.71C1040.21,99.81,1037.76,97.78,1035.07,97.78z"/>
	<path d="M1063.52,102.47c0-3.12-1.72-4.8-4.31-4.8c-2.66,0-4.38,1.68-4.38,4.8v10.71h-4.9V93.79h4.9v2.42   c1.26-1.65,3.36-2.7,5.85-2.7c4.52,0,7.74,2.94,7.74,8.3v11.38h-4.9V102.47z"/>
	<path d="M1073.84,97.82h-2.31v-4.03h2.31V89h4.94v4.8h4.34v4.03h-4.34v9.38c0,1.3,0.52,1.86,2.07,1.86h2.27v4.13h-3.08   c-3.71,0-6.2-1.58-6.2-6.02V97.82z"/>
</g>
<g>
	<path d="M28.2,113.43c-5.08,0-9-2.66-9.07-7.28h5.25c0.14,1.96,1.43,3.26,3.71,3.26c2.31,0,3.68-1.23,3.68-2.98   c0-5.29-12.6-2.1-12.57-10.96c0-4.41,3.57-7.07,8.61-7.07c5.01,0,8.44,2.56,8.75,6.97h-5.39c-0.1-1.61-1.4-2.87-3.5-2.91   c-1.92-0.07-3.36,0.88-3.36,2.87c0,4.9,12.53,2.17,12.53,10.78C36.84,109.96,33.76,113.43,28.2,113.43z"/>
	<path d="M49.54,113.5c-5.63,0-9.73-3.92-9.73-10.01c0-6.13,3.99-10.01,9.73-10.01c5.6,0,9.56,3.82,9.56,9.59   c0,0.63-0.04,1.26-0.14,1.89H44.78c0.25,2.87,2.21,4.48,4.66,4.48c2.1,0,3.25-1.05,3.89-2.35h5.29   C57.56,110.66,54.34,113.5,49.54,113.5z M44.82,101.67h9.21c-0.07-2.56-2.1-4.17-4.62-4.17C47.06,97.5,45.2,99.01,44.82,101.67z"/>
	<path d="M71,93.48c4.83,0,8.09,2.52,9.14,6.86h-5.29c-0.56-1.65-1.86-2.7-3.89-2.7c-2.73,0-4.55,2.06-4.55,5.85   c0,3.78,1.82,5.81,4.55,5.81c2.03,0,3.29-0.91,3.89-2.66h5.29c-1.05,4.13-4.31,6.86-9.14,6.86c-5.6,0-9.59-3.92-9.59-10.01   C61.41,97.4,65.4,93.48,71,93.48z"/>
	<path d="M92.35,113.5c-5.6,0-9.84-3.92-9.84-10.01c0-6.13,4.38-10.01,9.98-10.01s9.98,3.89,9.98,10.01   C102.46,109.58,97.98,113.5,92.35,113.5z M92.35,109.23c2.59,0,5.08-1.89,5.08-5.74c0-3.89-2.42-5.74-5.01-5.74   c-2.59,0-4.93,1.85-4.93,5.74C87.48,107.34,89.72,109.23,92.35,109.23z"/>
	<path d="M119.65,102.47c0-3.12-1.72-4.8-4.31-4.8c-2.66,0-4.38,1.68-4.38,4.8v10.71h-4.9V93.79h4.9v2.42   c1.26-1.65,3.36-2.7,5.85-2.7c4.52,0,7.74,2.94,7.74,8.3v11.38h-4.9V102.47z"/>
	<path d="M136.83,93.48c2.56,0,5.01,1.19,6.34,3.01v-9.21h4.97v25.9h-4.97v-2.87c-1.16,1.79-3.33,3.19-6.37,3.19   c-4.94,0-8.86-4.03-8.86-10.08S131.86,93.48,136.83,93.48z M138.06,97.78c-2.63,0-5.11,1.96-5.11,5.64s2.49,5.78,5.11,5.78   c2.7,0,5.15-2.03,5.15-5.71C143.2,99.81,140.75,97.78,138.06,97.78z"/>
	<path d="M169.03,93.51c2.91,0,5.04,1.29,6.23,2.8v-2.52h4.94v28.63h-4.94v-11.9c-1.19,1.54-3.4,2.94-6.34,2.94   c-4.9,0-8.93-4.06-8.93-10.01S164.03,93.51,169.03,93.51z M170.12,97.78c-2.52,0-5.11,1.92-5.11,5.67c0,3.75,2.59,5.74,5.11,5.74   c2.55,0,5.15-1.96,5.15-5.71C175.26,99.74,172.67,97.78,170.12,97.78z"/>
	<path d="M203.3,113.18h-4.94v-2.45c-1.23,1.65-3.36,2.7-5.78,2.7c-4.52,0-7.77-2.94-7.77-8.26V93.79h4.9v10.68   c0,3.12,1.71,4.8,4.31,4.8c2.66,0,4.34-1.68,4.34-4.8V93.79h4.94V113.18z"/>
	<path d="M215.72,93.48c3.12,0,5.25,1.47,6.41,3.08v-2.77h4.94v19.39h-4.94v-2.84c-1.16,1.68-3.36,3.15-6.44,3.15   c-4.9,0-8.82-4.03-8.82-10.08S210.79,93.48,215.72,93.48z M216.98,97.78c-2.63,0-5.11,1.96-5.11,5.64s2.49,5.78,5.11,5.78   c2.7,0,5.15-2.03,5.15-5.71C222.13,99.81,219.68,97.78,216.98,97.78z"/>
	<path d="M239.49,93.48c2.56,0,5.01,1.19,6.34,3.01v-9.21h4.97v25.9h-4.97v-2.87c-1.16,1.79-3.33,3.19-6.37,3.19   c-4.94,0-8.86-4.03-8.86-10.08S234.51,93.48,239.49,93.48z M240.71,97.78c-2.63,0-5.11,1.96-5.11,5.64s2.48,5.78,5.11,5.78   c2.7,0,5.15-2.03,5.15-5.71C245.86,99.81,243.41,97.78,240.71,97.78z"/>
	<path d="M260.48,113.18h-4.9V93.79h4.9v3.01c1.23-2,3.26-3.29,5.95-3.29v5.15h-1.29c-2.91,0-4.66,1.12-4.66,4.87V113.18z"/>
	<path d="M277.32,93.48c3.12,0,5.25,1.47,6.41,3.08v-2.77h4.94v19.39h-4.94v-2.84c-1.16,1.68-3.36,3.15-6.44,3.15   c-4.9,0-8.82-4.03-8.82-10.08S272.38,93.48,277.32,93.48z M278.58,97.78c-2.63,0-5.11,1.96-5.11,5.64s2.48,5.78,5.11,5.78   c2.7,0,5.15-2.03,5.15-5.71C283.73,99.81,281.28,97.78,278.58,97.78z"/>
	<path d="M307.04,102.47c0-3.12-1.72-4.8-4.31-4.8c-2.66,0-4.38,1.68-4.38,4.8v10.71h-4.9V93.79h4.9v2.42   c1.26-1.65,3.36-2.7,5.85-2.7c4.52,0,7.74,2.94,7.74,8.3v11.38h-4.9V102.47z"/>
	<path d="M317.36,97.82h-2.31v-4.03h2.31V89h4.94v4.8h4.34v4.03h-4.34v9.38c0,1.3,0.52,1.86,2.07,1.86h2.27v4.13h-3.08   c-3.71,0-6.2-1.58-6.2-6.02V97.82z"/>
</g>
<g>
	<path d="M794.55,657.24h15.09v3.96h-10.19v6.27h7.81v3.88h-7.81v10.33h-4.9V657.24z"/>
	<path d="M821.71,681.99c-5.6,0-9.84-3.92-9.84-10.01c0-6.13,4.38-10.01,9.98-10.01s9.98,3.89,9.98,10.01   C831.82,678.07,827.34,681.99,821.71,681.99z M821.71,677.72c2.59,0,5.08-1.89,5.08-5.74c0-3.89-2.42-5.74-5.01-5.74   c-2.59,0-4.94,1.86-4.94,5.74C816.84,675.83,819.08,677.72,821.71,677.72z"/>
	<path d="M853.73,681.68h-4.93v-2.45c-1.23,1.65-3.36,2.7-5.78,2.7c-4.52,0-7.77-2.94-7.77-8.26v-11.38h4.9v10.68   c0,3.12,1.71,4.8,4.31,4.8c2.66,0,4.34-1.68,4.34-4.8v-10.68h4.93V681.68z"/>
	<path d="M863.46,681.68h-4.9v-19.39h4.9v3.01c1.23-2,3.26-3.29,5.95-3.29v5.15h-1.29c-2.91,0-4.66,1.12-4.66,4.87V681.68z"/>
	<path d="M873.47,666.31h-2.31v-4.03h2.31v-4.8h4.94v4.8h4.34v4.03h-4.34v9.38c0,1.29,0.52,1.86,2.07,1.86h2.27v4.13h-3.08   c-3.71,0-6.2-1.58-6.2-6.02V666.31z"/>
	<path d="M886.28,655.77h4.9v8.93c1.26-1.65,3.43-2.7,6.02-2.7c4.38,0,7.56,2.94,7.56,8.3v11.38h-4.9v-10.71   c0-3.12-1.72-4.8-4.31-4.8c-2.66,0-4.38,1.68-4.38,4.8v10.71h-4.9V655.77z"/>
	<path d="M925.52,662c2.91,0,5.04,1.29,6.23,2.8v-2.52h4.94v28.63h-4.94v-11.9c-1.19,1.54-3.4,2.94-6.34,2.94   c-4.9,0-8.93-4.06-8.93-10.01C916.48,665.99,920.51,662,925.52,662z M926.6,666.27c-2.52,0-5.11,1.92-5.11,5.67   c0,3.75,2.59,5.74,5.11,5.74c2.55,0,5.15-1.96,5.15-5.71C931.75,668.23,929.16,666.27,926.6,666.27z"/>
	<path d="M959.78,681.68h-4.94v-2.45c-1.23,1.65-3.36,2.7-5.78,2.7c-4.52,0-7.77-2.94-7.77-8.26v-11.38h4.9v10.68   c0,3.12,1.71,4.8,4.31,4.8c2.66,0,4.34-1.68,4.34-4.8v-10.68h4.94V681.68z"/>
	<path d="M972.2,661.97c3.12,0,5.25,1.47,6.41,3.08v-2.76h4.94v19.39h-4.94v-2.83c-1.16,1.68-3.36,3.15-6.44,3.15   c-4.9,0-8.82-4.03-8.82-10.08S967.27,661.97,972.2,661.97z M973.46,666.27c-2.63,0-5.11,1.96-5.11,5.64c0,3.67,2.49,5.78,5.11,5.78   c2.7,0,5.15-2.03,5.15-5.71C978.61,668.3,976.16,666.27,973.46,666.27z"/>
	<path d="M995.97,661.97c2.56,0,5.01,1.19,6.34,3.01v-9.21h4.97v25.9h-4.97v-2.87c-1.16,1.79-3.33,3.19-6.37,3.19   c-4.94,0-8.86-4.03-8.86-10.08S991,661.97,995.97,661.97z M997.19,666.27c-2.63,0-5.11,1.96-5.11,5.64c0,3.67,2.48,5.78,5.11,5.78   c2.7,0,5.15-2.03,5.15-5.71C1002.34,668.3,999.89,666.27,997.19,666.27z"/>
	<path d="M1016.97,681.68h-4.9v-19.39h4.9v3.01c1.23-2,3.26-3.29,5.95-3.29v5.15h-1.29c-2.91,0-4.66,1.12-4.66,4.87V681.68z"/>
	<path d="M1033.8,661.97c3.12,0,5.25,1.47,6.41,3.08v-2.76h4.94v19.39h-4.94v-2.83c-1.16,1.68-3.36,3.15-6.44,3.15   c-4.9,0-8.82-4.03-8.82-10.08S1028.87,661.97,1033.8,661.97z M1035.06,666.27c-2.63,0-5.11,1.96-5.11,5.64   c0,3.67,2.48,5.78,5.11,5.78c2.7,0,5.15-2.03,5.15-5.71C1040.21,668.3,1037.76,666.27,1035.06,666.27z"/>
	<path d="M1063.52,670.96c0-3.12-1.72-4.8-4.31-4.8c-2.66,0-4.38,1.68-4.38,4.8v10.71h-4.9v-19.39h4.9v2.42   c1.26-1.65,3.36-2.7,5.85-2.7c4.52,0,7.74,2.94,7.74,8.3v11.38h-4.9V670.96z"/>
	<path d="M1073.84,666.31h-2.31v-4.03h2.31v-4.8h4.94v4.8h4.34v4.03h-4.34v9.38c0,1.29,0.52,1.86,2.07,1.86h2.27v4.13h-3.08   c-3.71,0-6.2-1.58-6.2-6.02V666.31z"/>
</g>
<g>
	<path d="M18.46,657.24h17.92v3.96h-6.51v20.48h-4.9V661.2h-6.51V657.24z"/>
	<path d="M39.95,655.77h4.9v8.93c1.26-1.65,3.43-2.7,6.02-2.7c4.38,0,7.56,2.94,7.56,8.3v11.38h-4.9v-10.71   c0-3.12-1.72-4.8-4.31-4.8c-2.66,0-4.38,1.68-4.38,4.8v10.71h-4.9V655.77z"/>
	<path d="M62.56,657.1c0-1.61,1.26-2.87,3.01-2.87c1.71,0,3.01,1.26,3.01,2.87s-1.3,2.87-3.01,2.87   C63.82,659.97,62.56,658.71,62.56,657.1z M63.09,662.28h4.9v19.39h-4.9V662.28z"/>
	<path d="M77.72,681.68h-4.9v-19.39h4.9v3.01c1.23-2,3.26-3.29,5.95-3.29v5.15h-1.29c-2.91,0-4.66,1.12-4.66,4.87V681.68z"/>
	<path d="M94.59,661.97c2.56,0,5.01,1.19,6.34,3.01v-9.21h4.97v25.9h-4.97v-2.87c-1.16,1.79-3.33,3.19-6.37,3.19   c-4.94,0-8.86-4.03-8.86-10.08S89.62,661.97,94.59,661.97z M95.82,666.27c-2.63,0-5.11,1.96-5.11,5.64c0,3.67,2.49,5.78,5.11,5.78   c2.7,0,5.15-2.03,5.15-5.71C100.96,668.3,98.51,666.27,95.82,666.27z"/>
	<path d="M126.79,662c2.91,0,5.04,1.29,6.23,2.8v-2.52h4.94v28.63h-4.94v-11.9c-1.19,1.54-3.4,2.94-6.34,2.94   c-4.9,0-8.93-4.06-8.93-10.01C117.76,665.99,121.78,662,126.79,662z M127.88,666.27c-2.52,0-5.11,1.92-5.11,5.67   c0,3.75,2.59,5.74,5.11,5.74c2.55,0,5.15-1.96,5.15-5.71C133.02,668.23,130.43,666.27,127.88,666.27z"/>
	<path d="M161.06,681.68h-4.94v-2.45c-1.23,1.65-3.36,2.7-5.78,2.7c-4.52,0-7.77-2.94-7.77-8.26v-11.38h4.9v10.68   c0,3.12,1.71,4.8,4.31,4.8c2.66,0,4.34-1.68,4.34-4.8v-10.68h4.94V681.68z"/>
	<path d="M173.48,661.97c3.12,0,5.25,1.47,6.41,3.08v-2.76h4.94v19.39h-4.94v-2.83c-1.16,1.68-3.36,3.15-6.44,3.15   c-4.9,0-8.82-4.03-8.82-10.08S168.54,661.97,173.48,661.97z M174.74,666.27c-2.63,0-5.11,1.96-5.11,5.64   c0,3.67,2.49,5.78,5.11,5.78c2.7,0,5.15-2.03,5.15-5.71C179.88,668.3,177.43,666.27,174.74,666.27z"/>
	<path d="M197.24,661.97c2.56,0,5.01,1.19,6.34,3.01v-9.21h4.97v25.9h-4.97v-2.87c-1.16,1.79-3.33,3.19-6.37,3.19   c-4.94,0-8.86-4.03-8.86-10.08S192.27,661.97,197.24,661.97z M198.47,666.27c-2.63,0-5.11,1.96-5.11,5.64   c0,3.67,2.48,5.78,5.11,5.78c2.7,0,5.15-2.03,5.15-5.71C203.61,668.3,201.16,666.27,198.47,666.27z"/>
	<path d="M218.24,681.68h-4.9v-19.39h4.9v3.01c1.23-2,3.26-3.29,5.95-3.29v5.15h-1.29c-2.91,0-4.66,1.12-4.66,4.87V681.68z"/>
	<path d="M235.08,661.97c3.12,0,5.25,1.47,6.41,3.08v-2.76h4.94v19.39h-4.94v-2.83c-1.16,1.68-3.36,3.15-6.44,3.15   c-4.9,0-8.82-4.03-8.82-10.08S230.14,661.97,235.08,661.97z M236.34,666.27c-2.63,0-5.11,1.96-5.11,5.64   c0,3.67,2.48,5.78,5.11,5.78c2.7,0,5.15-2.03,5.15-5.71C241.48,668.3,239.03,666.27,236.34,666.27z"/>
	<path d="M264.79,670.96c0-3.12-1.72-4.8-4.31-4.8c-2.66,0-4.38,1.68-4.38,4.8v10.71h-4.9v-19.39h4.9v2.42   c1.26-1.65,3.36-2.7,5.85-2.7c4.52,0,7.74,2.94,7.74,8.3v11.38h-4.9V670.96z"/>
	<path d="M275.12,666.31h-2.31v-4.03h2.31v-4.8h4.94v4.8h4.34v4.03h-4.34v9.38c0,1.29,0.52,1.86,2.07,1.86h2.27v4.13h-3.08   c-3.71,0-6.2-1.58-6.2-6.02V666.31z"/>
</g>
<g>
	<path class="st0" d="M530.49,671.52c-76.52,0-148.45-29.8-202.56-83.9c-54.11-54.11-83.9-126.04-83.9-202.56   c0-76.52,29.8-148.45,83.9-202.56c54.11-54.11,126.04-83.9,202.56-83.9c76.52,0,148.46,29.8,202.56,83.9   c54.11,54.11,83.9,126.04,83.9,202.56c0,76.52-29.8,148.46-83.9,202.56C678.95,641.73,607.01,671.52,530.49,671.52z M530.49,104.6   c-74.91,0-145.34,29.17-198.32,82.15c-52.97,52.97-82.15,123.4-82.15,198.32c0,74.92,29.17,145.35,82.15,198.32   c52.97,52.97,123.4,82.15,198.32,82.15c74.92,0,145.35-29.17,198.32-82.15s82.15-123.4,82.15-198.32   c0-74.91-29.17-145.34-82.15-198.32C675.84,133.77,605.41,104.6,530.49,104.6z"/>
</g>
<g>
	<path d="M530.49,386.06c-0.17,0-0.34-0.04-0.5-0.13c-0.48-0.28-0.64-0.89-0.37-1.37l141.73-245.48c0.28-0.48,0.89-0.64,1.37-0.37   c0.48,0.28,0.64,0.89,0.37,1.37L531.36,385.56C531.17,385.88,530.84,386.06,530.49,386.06z"/>
</g>
<g>
	<path d="M530.49,386.06c-0.26,0-0.51-0.1-0.71-0.29c-0.39-0.39-0.39-1.02,0-1.41l200.44-200.44c0.39-0.39,1.02-0.39,1.41,0   s0.39,1.02,0,1.41L531.2,385.77C531,385.96,530.75,386.06,530.49,386.06z"/>
</g>
<g>
	<path d="M530.49,386.06c-0.35,0-0.68-0.18-0.87-0.5c-0.28-0.48-0.11-1.09,0.37-1.37l245.49-141.73c0.48-0.28,1.09-0.11,1.37,0.37   c0.28,0.48,0.11,1.09-0.37,1.37L530.99,385.93C530.83,386.02,530.66,386.06,530.49,386.06z"/>
</g>
<g>
	<path d="M730.93,586.5c-0.26,0-0.51-0.1-0.71-0.29L529.79,385.77c-0.39-0.39-0.39-1.02,0-1.41s1.02-0.39,1.41,0l200.44,200.44   c0.39,0.39,0.39,1.02,0,1.41C731.45,586.4,731.19,586.5,730.93,586.5z"/>
</g>
<g>
	<path d="M330.06,586.5c-0.26,0-0.51-0.1-0.71-0.29c-0.39-0.39-0.39-1.02,0-1.41l200.44-200.44c0.39-0.39,1.02-0.39,1.41,0   s0.39,1.02,0,1.41L330.76,586.21C330.57,586.4,330.31,586.5,330.06,586.5z"/>
</g>
<g>
	<path d="M530.49,386.06c-0.26,0-0.51-0.1-0.71-0.29L329.35,185.33c-0.39-0.39-0.39-1.02,0-1.41s1.02-0.39,1.41,0L531.2,384.35   c0.39,0.39,0.39,1.02,0,1.41C531,385.96,530.75,386.06,530.49,386.06z"/>
</g>
<g>
	<path d="M672.23,140.58h-5v-2h5V140.58z M663.23,140.58h-5v-2h5V140.58z M654.23,140.58h-5v-2h5V140.58z M645.23,140.58h-5v-2h5   V140.58z M636.23,140.58h-5v-2h5V140.58z M627.23,140.58h-5v-2h5V140.58z M618.23,140.58h-5v-2h5V140.58z M609.23,140.58h-5v-2h5   V140.58z M600.23,140.58h-5v-2h5V140.58z M591.23,140.58h-5v-2h5V140.58z M582.23,140.58h-5v-2h5V140.58z M573.23,140.58h-5v-2h5   V140.58z M564.23,140.58h-5v-2h5V140.58z M555.23,140.58h-5v-2h5V140.58z M546.23,140.58h-5v-2h5V140.58z M537.23,140.58h-5v-2h5   V140.58z"/>
</g>
<g>
	<path d="M673.23,385.06h-2v-2.48h2V385.06z M673.23,378.58h-2v-5h2V378.58z M673.23,369.58h-2v-5h2V369.58z M673.23,360.58h-2v-5h2   V360.58z M673.23,351.58h-2v-5h2V351.58z M673.23,342.58h-2v-5h2V342.58z M673.23,333.58h-2v-5h2V333.58z M673.23,324.58h-2v-5h2   V324.58z M673.23,315.58h-2v-5h2V315.58z M673.23,306.58h-2v-5h2V306.58z M673.23,297.58h-2v-5h2V297.58z M673.23,288.58h-2v-5h2   V288.58z M673.23,279.58h-2v-5h2V279.58z M673.23,270.58h-2v-5h2V270.58z M673.23,261.58h-2v-5h2V261.58z M673.23,252.58h-2v-5h2   V252.58z M673.23,243.58h-2v-5h2V243.58z M673.23,234.58h-2v-5h2V234.58z M673.23,225.58h-2v-5h2V225.58z M673.23,216.58h-2v-5h2   V216.58z M673.23,207.58h-2v-5h2V207.58z M673.23,198.58h-2v-5h2V198.58z M673.23,189.58h-2v-5h2V189.58z M673.23,180.58h-2v-5h2   V180.58z M673.23,171.58h-2v-5h2V171.58z M673.23,162.58h-2v-5h2V162.58z M673.23,153.58h-2v-5h2V153.58z M673.23,144.58h-2v-5h2   V144.58z"/>
</g>
<g>
	<path d="M731.93,585.5h-2v-4.88h2V585.5z M731.93,576.62h-2v-5h2V576.62z M731.93,567.62h-2v-5h2V567.62z M731.93,558.62h-2v-5h2   V558.62z M731.93,549.62h-2v-5h2V549.62z M731.93,540.62h-2v-5h2V540.62z M731.93,531.62h-2v-5h2V531.62z M731.93,522.62h-2v-5h2   V522.62z M731.93,513.62h-2v-5h2V513.62z M731.93,504.62h-2v-5h2V504.62z M731.93,495.62h-2v-5h2V495.62z M731.93,486.62h-2v-5h2   V486.62z M731.93,477.62h-2v-5h2V477.62z M731.93,468.62h-2v-5h2V468.62z M731.93,459.62h-2v-5h2V459.62z M731.93,450.62h-2v-5h2   V450.62z M731.93,441.62h-2v-5h2V441.62z M731.93,432.62h-2v-5h2V432.62z M731.93,423.62h-2v-5h2V423.62z M731.93,414.62h-2v-5h2   V414.62z M731.93,405.62h-2v-5h2V405.62z M731.93,396.62h-2v-5h2V396.62z M731.93,387.62h-2v-5h2V387.62z M731.93,378.62h-2v-5h2   V378.62z M731.93,369.62h-2v-5h2V369.62z M731.93,360.62h-2v-5h2V360.62z M731.93,351.62h-2v-5h2V351.62z M731.93,342.62h-2v-5h2   V342.62z M731.93,333.62h-2v-5h2V333.62z M731.93,324.62h-2v-5h2V324.62z M731.93,315.62h-2v-5h2V315.62z M731.93,306.62h-2v-5h2   V306.62z M731.93,297.62h-2v-5h2V297.62z M731.93,288.62h-2v-5h2V288.62z M731.93,279.62h-2v-5h2V279.62z M731.93,270.62h-2v-5h2   V270.62z M731.93,261.62h-2v-5h2V261.62z M731.93,252.62h-2v-5h2V252.62z M731.93,243.62h-2v-5h2V243.62z M731.93,234.62h-2v-5h2   V234.62z M731.93,225.62h-2v-5h2V225.62z M731.93,216.62h-2v-5h2V216.62z M731.93,207.62h-2v-5h2V207.62z M731.93,198.62h-2v-5h2   V198.62z M731.93,189.62h-2v-5h2V189.62z"/>
</g>
<g>
	<path d="M776.98,383.33h-2v-5h2V383.33z M776.98,374.33h-2v-5h2V374.33z M776.98,365.33h-2v-5h2V365.33z M776.98,356.33h-2v-5h2   V356.33z M776.98,347.33h-2v-5h2V347.33z M776.98,338.33h-2v-5h2V338.33z M776.98,329.33h-2v-5h2V329.33z M776.98,320.33h-2v-5h2   V320.33z M776.98,311.33h-2v-5h2V311.33z M776.98,302.33h-2v-5h2V302.33z M776.98,293.33h-2v-5h2V293.33z M776.98,284.33h-2v-5h2   V284.33z M776.98,275.33h-2v-5h2V275.33z M776.98,266.33h-2v-5h2V266.33z M776.98,257.33h-2v-5h2V257.33z M776.98,248.33h-2v-5h2   V248.33z"/>
</g>
<g>
	<path d="M730.93,185.62h-4.88v-2h4.88V185.62z M722.05,185.62h-5v-2h5V185.62z M713.05,185.62h-5v-2h5V185.62z M704.05,185.62h-5   v-2h5V185.62z M695.05,185.62h-5v-2h5V185.62z M686.05,185.62h-5v-2h5V185.62z M677.05,185.62h-5v-2h5V185.62z M668.05,185.62h-5   v-2h5V185.62z M659.05,185.62h-5v-2h5V185.62z M650.05,185.62h-5v-2h5V185.62z M641.05,185.62h-5v-2h5V185.62z M632.05,185.62h-5   v-2h5V185.62z M623.05,185.62h-5v-2h5V185.62z M614.05,185.62h-5v-2h5V185.62z M605.05,185.62h-5v-2h5V185.62z M596.05,185.62h-5   v-2h5V185.62z M587.05,185.62h-5v-2h5V185.62z M578.05,185.62h-5v-2h5V185.62z M569.05,185.62h-5v-2h5V185.62z M560.06,185.62h-5   v-2h5V185.62z M551.06,185.62h-5v-2h5V185.62z M542.06,185.62h-5v-2h5V185.62z M533.06,185.62h-5v-2h5V185.62z M524.06,185.62h-5   v-2h5V185.62z M515.06,185.62h-5v-2h5V185.62z M506.06,185.62h-5v-2h5V185.62z M497.06,185.62h-5v-2h5V185.62z M488.06,185.62h-5   v-2h5V185.62z M479.06,185.62h-5v-2h5V185.62z M470.06,185.62h-5v-2h5V185.62z M461.06,185.62h-5v-2h5V185.62z M452.06,185.62h-5   v-2h5V185.62z M443.06,185.62h-5v-2h5V185.62z M434.06,185.62h-5v-2h5V185.62z M425.06,185.62h-5v-2h5V185.62z M416.06,185.62h-5   v-2h5V185.62z M407.06,185.62h-5v-2h5V185.62z M398.06,185.62h-5v-2h5V185.62z M389.06,185.62h-5v-2h5V185.62z M380.06,185.62h-5   v-2h5V185.62z M371.06,185.62h-5v-2h5V185.62z M362.06,185.62h-5v-2h5V185.62z M353.06,185.62h-5v-2h5V185.62z M344.06,185.62h-5   v-2h5V185.62z M335.06,185.62h-5v-2h5V185.62z"/>
</g>
<g>
	<path d="M331.06,585.5h-2v-4.88h2V585.5z M331.06,576.62h-2v-5h2V576.62z M331.06,567.62h-2v-5h2V567.62z M331.06,558.62h-2v-5h2   V558.62z M331.06,549.62h-2v-5h2V549.62z M331.06,540.62h-2v-5h2V540.62z M331.06,531.62h-2v-5h2V531.62z M331.06,522.62h-2v-5h2   V522.62z M331.06,513.62h-2v-5h2V513.62z M331.06,504.62h-2v-5h2V504.62z M331.06,495.62h-2v-5h2V495.62z M331.06,486.62h-2v-5h2   V486.62z M331.06,477.62h-2v-5h2V477.62z M331.06,468.62h-2v-5h2V468.62z M331.06,459.62h-2v-5h2V459.62z M331.06,450.62h-2v-5h2   V450.62z M331.06,441.62h-2v-5h2V441.62z M331.06,432.62h-2v-5h2V432.62z M331.06,423.62h-2v-5h2V423.62z M331.06,414.62h-2v-5h2   V414.62z M331.06,405.62h-2v-5h2V405.62z M331.06,396.62h-2v-5h2V396.62z M331.06,387.62h-2v-5h2V387.62z M331.06,378.62h-2v-5h2   V378.62z M331.06,369.62h-2v-5h2V369.62z M331.06,360.62h-2v-5h2V360.62z M331.06,351.62h-2v-5h2V351.62z M331.06,342.62h-2v-5h2   V342.62z M331.06,333.62h-2v-5h2V333.62z M331.06,324.62h-2v-5h2V324.62z M331.06,315.62h-2v-5h2V315.62z M331.06,306.62h-2v-5h2   V306.62z M331.06,297.62h-2v-5h2V297.62z M331.06,288.62h-2v-5h2V288.62z M331.06,279.62h-2v-5h2V279.62z M331.06,270.62h-2v-5h2   V270.62z M331.06,261.62h-2v-5h2V261.62z M331.06,252.62h-2v-5h2V252.62z M331.06,243.62h-2v-5h2V243.62z M331.06,234.62h-2v-5h2   V234.62z M331.06,225.62h-2v-5h2V225.62z M331.06,216.62h-2v-5h2V216.62z M331.06,207.62h-2v-5h2V207.62z M331.06,198.62h-2v-5h2   V198.62z M331.06,189.62h-2v-5h2V189.62z"/>
</g>
<g>
	<path d="M730.93,586.5h-4.88v-2h4.88V586.5z M722.05,586.5h-5v-2h5V586.5z M713.05,586.5h-5v-2h5V586.5z M704.05,586.5h-5v-2h5   V586.5z M695.05,586.5h-5v-2h5V586.5z M686.05,586.5h-5v-2h5V586.5z M677.05,586.5h-5v-2h5V586.5z M668.05,586.5h-5v-2h5V586.5z    M659.05,586.5h-5v-2h5V586.5z M650.05,586.5h-5v-2h5V586.5z M641.05,586.5h-5v-2h5V586.5z M632.05,586.5h-5v-2h5V586.5z    M623.05,586.5h-5v-2h5V586.5z M614.05,586.5h-5v-2h5V586.5z M605.05,586.5h-5v-2h5V586.5z M596.05,586.5h-5v-2h5V586.5z    M587.05,586.5h-5v-2h5V586.5z M578.05,586.5h-5v-2h5V586.5z M569.05,586.5h-5v-2h5V586.5z M560.06,586.5h-5v-2h5V586.5z    M551.06,586.5h-5v-2h5V586.5z M542.06,586.5h-5v-2h5V586.5z M533.06,586.5h-5v-2h5V586.5z M524.06,586.5h-5v-2h5V586.5z    M515.06,586.5h-5v-2h5V586.5z M506.06,586.5h-5v-2h5V586.5z M497.06,586.5h-5v-2h5V586.5z M488.06,586.5h-5v-2h5V586.5z    M479.06,586.5h-5v-2h5V586.5z M470.06,586.5h-5v-2h5V586.5z M461.06,586.5h-5v-2h5V586.5z M452.06,586.5h-5v-2h5V586.5z    M443.06,586.5h-5v-2h5V586.5z M434.06,586.5h-5v-2h5V586.5z M425.06,586.5h-5v-2h5V586.5z M416.06,586.5h-5v-2h5V586.5z    M407.06,586.5h-5v-2h5V586.5z M398.06,586.5h-5v-2h5V586.5z M389.06,586.5h-5v-2h5V586.5z M380.06,586.5h-5v-2h5V586.5z    M371.06,586.5h-5v-2h5V586.5z M362.06,586.5h-5v-2h5V586.5z M353.06,586.5h-5v-2h5V586.5z M344.06,586.5h-5v-2h5V586.5z    M335.06,586.5h-5v-2h5V586.5z"/>
</g>
<g>
	<path d="M775.98,244.33h-5v-2h5V244.33z M766.98,244.33h-5v-2h5V244.33z M757.98,244.33h-5v-2h5V244.33z M748.98,244.33h-5v-2h5   V244.33z M739.98,244.33h-5v-2h5V244.33z M730.98,244.33h-5v-2h5V244.33z M721.98,244.33h-5v-2h5V244.33z M712.98,244.33h-5v-2h5   V244.33z M703.98,244.33h-5v-2h5V244.33z M694.98,244.33h-5v-2h5V244.33z M685.98,244.33h-5v-2h5V244.33z M676.98,244.33h-5v-2h5   V244.33z M667.98,244.33h-5v-2h5V244.33z M658.98,244.33h-5v-2h5V244.33z M649.98,244.33h-5v-2h5V244.33z M640.98,244.33h-5v-2h5   V244.33z M631.98,244.33h-5v-2h5V244.33z M622.98,244.33h-5v-2h5V244.33z M613.98,244.33h-5v-2h5V244.33z M604.98,244.33h-5v-2h5   V244.33z M595.98,244.33h-5v-2h5V244.33z M586.98,244.33h-5v-2h5V244.33z M577.98,244.33h-5v-2h5V244.33z M568.98,244.33h-5v-2h5   V244.33z M559.98,244.33h-5v-2h5V244.33z M550.98,244.33h-5v-2h5V244.33z M541.98,244.33h-5v-2h5V244.33z M532.98,244.33h-2.49v-2   h2.49V244.33z"/>
</g>
<g>
	<path d="M1062.64,373.24c5.52,0,9.24,2.88,10.44,7.84h-6.04c-0.64-1.88-2.12-3.08-4.44-3.08c-3.12,0-5.2,2.36-5.2,6.68   s2.08,6.64,5.2,6.64c2.32,0,3.76-1.04,4.44-3.04h6.04c-1.2,4.72-4.92,7.84-10.44,7.84c-6.4,0-10.96-4.48-10.96-11.44   S1056.24,373.24,1062.64,373.24z"/>
	<path d="M1087.04,396.12c-6.4,0-11.24-4.48-11.24-11.44c0-7,5-11.44,11.4-11.44c6.4,0,11.4,4.44,11.4,11.44   C1098.6,391.64,1093.48,396.12,1087.04,396.12z M1087.04,391.24c2.96,0,5.8-2.16,5.8-6.56c0-4.44-2.76-6.56-5.72-6.56   c-2.96,0-5.64,2.12-5.64,6.56C1081.48,389.08,1084.04,391.24,1087.04,391.24z"/>
	<path d="M1111.2,396.12c-5.56,0-9.44-3.24-9.68-7.36h5.64c0.2,1.68,1.76,2.96,4,2.96c2.2,0,3.4-1,3.4-2.28   c0-3.96-12.52-1.44-12.52-9.56c0-3.68,3.28-6.64,8.76-6.64c5.36,0,8.6,2.92,8.92,7.32h-5.36c-0.16-1.72-1.52-2.88-3.72-2.88   c-2.08,0-3.16,0.84-3.16,2.12c0,4.04,12.28,1.52,12.44,9.64C1119.92,393.24,1116.6,396.12,1111.2,396.12z"/>
</g>
<g>
	<g>
		<path class="st1" d="M536.62,45.99c-0.38,0-0.77-0.15-1.06-0.44l-5.07-5.07l-5.07,5.07c-0.59,0.59-1.54,0.59-2.12,0    s-0.59-1.54,0-2.12l7.19-7.19l7.19,7.19c0.59,0.59,0.59,1.54,0,2.12C537.39,45.84,537.01,45.99,536.62,45.99z"/>
	</g>
	<g>
		<rect x="528.99" y="39.76" class="st1" width="3" height="688.24"/>
	</g>
</g>
<g>
	<g>
		<path class="st1" d="M1040.02,392.69c-0.38,0-0.77-0.15-1.06-0.44c-0.59-0.59-0.59-1.54,0-2.12l5.07-5.07l-5.07-5.07    c-0.59-0.59-0.59-1.54,0-2.12s1.54-0.59,2.12,0l7.19,7.19l-7.19,7.19C1040.79,392.54,1040.41,392.69,1040.02,392.69z"/>
	</g>
	<g>
		<rect y="383.56" class="st1" width="1044.75" height="3"/>
	</g>
</g>
<g>
	<path d="M747.84,587.52c6,0,9.2,3.4,9.2,7.72c0,3.64-2.28,5.88-4.4,6.6v0.16c2.96,0.92,4.92,3.32,4.92,7.28   c0,4.76-3.36,8.28-9.48,8.28c-5.76,0-10.12-2.88-10.36-9h5.44c0.12,2.52,1.8,4.32,4.8,4.32c2.8,0,4.24-1.76,4.24-4.08   c0-3.28-2.08-4.48-6.24-4.48h-1.16v-4.6h1.16c3.28,0,5.68-0.92,5.68-3.8c0-2.28-1.4-3.64-3.96-3.64c-2.72,0-3.88,1.76-4.08,3.6   h-5.48C738.4,590.48,742.24,587.52,747.84,587.52z"/>
	<path d="M765.2,593.36h-3.88v-5.16h9.64v29.16h-5.76V593.36z"/>
	<path d="M796.08,588.12v4.92h-12.96v6.84c1.08-1.32,3.28-2.36,5.72-2.36c6.8,0,9.12,5.12,9.12,9.64c0,5.96-3.44,10.2-10.08,10.2   c-6.28,0-9.88-3.48-10.36-8.24h5.44c0.48,2.04,2.12,3.52,4.84,3.52c3.28,0,4.76-2.32,4.76-5.4c0-3.28-1.64-5.08-4.8-5.08   c-2.32,0-3.8,1.28-4.4,3.08H778v-17.12H796.08z"/>
</g>
<g>
	<path d="M830.46,402.45h-3.88v-5.16h9.64v29.16h-5.76V402.45z"/>
</g>
<g>
	<path d="M786.18,398.83c5,0,7.67,2.83,7.67,6.43c0,3.03-1.9,4.9-3.67,5.5v0.13c2.47,0.77,4.1,2.77,4.1,6.07c0,3.97-2.8,6.9-7.9,6.9   c-4.8,0-8.43-2.4-8.63-7.5h4.53c0.1,2.1,1.5,3.6,4,3.6c2.33,0,3.53-1.47,3.53-3.4c0-2.73-1.73-3.73-5.2-3.73h-0.97V409h0.97   c2.73,0,4.73-0.77,4.73-3.17c0-1.9-1.17-3.03-3.3-3.03c-2.27,0-3.23,1.47-3.4,3h-4.57C778.31,401.3,781.51,398.83,786.18,398.83z"/>
</g>
<g>
	<path d="M767.08,454.12c5.5-4.67,11.26-8.96,11.26-13.43c0-2.17-0.97-3.63-3.27-3.63c-2.23,0-3.47,1.6-3.5,4.17h-4.53   c0.17-5.57,3.73-8.13,8.1-8.13c5.23,0,7.86,3.1,7.86,7.33c0,5.63-5.43,10.03-9.3,13.3h9.83v3.87h-16.46V454.12z"/>
</g>
<g>
	<path d="M199.91,409.81h16.96v4.72h-16.96V409.81z"/>
	<path d="M225.71,402.45h-3.88v-5.16h9.64v29.16h-5.76V402.45z"/>
</g>
<g>
	<path d="M806.87,596.27c-3.53,0-6.4-2.87-6.4-6.4c0-3.53,2.87-6.4,6.4-6.4c3.53,0,6.4,2.87,6.4,6.4   C813.27,593.39,810.4,596.27,806.87,596.27z M806.87,586.06c-2.1,0-3.81,1.71-3.81,3.81c0,2.1,1.71,3.81,3.81,3.81   c2.1,0,3.81-1.71,3.81-3.81C810.68,587.76,808.97,586.06,806.87,586.06z"/>
</g>
<g>
	<path d="M241.27,612.79c6.6-5.6,13.52-10.76,13.52-16.12c0-2.6-1.16-4.36-3.92-4.36c-2.68,0-4.16,1.92-4.2,5h-5.44   c0.2-6.68,4.48-9.76,9.72-9.76c6.28,0,9.44,3.72,9.44,8.8c0,6.76-6.52,12.04-11.16,15.96h11.8v4.64h-19.76V612.79z"/>
	<path d="M264.23,612.79c6.6-5.6,13.52-10.76,13.52-16.12c0-2.6-1.16-4.36-3.92-4.36c-2.68,0-4.16,1.92-4.2,5h-5.44   c0.2-6.68,4.48-9.76,9.72-9.76c6.28,0,9.44,3.72,9.44,8.8c0,6.76-6.52,12.04-11.16,15.96h11.8v4.64h-19.76V612.79z"/>
	<path d="M307.11,588.12v4.92h-12.96v6.84c1.08-1.32,3.28-2.36,5.72-2.36c6.8,0,9.12,5.12,9.12,9.64c0,5.96-3.44,10.2-10.08,10.2   c-6.28,0-9.88-3.48-10.36-8.24h5.44c0.48,2.04,2.12,3.52,4.84,3.52c3.28,0,4.76-2.32,4.76-5.4c0-3.28-1.64-5.08-4.8-5.08   c-2.32,0-3.8,1.28-4.4,3.08h-5.36v-17.12H307.11z"/>
</g>
<g>
	<path d="M317.9,596.27c-3.53,0-6.4-2.87-6.4-6.4c0-3.53,2.87-6.4,6.4-6.4s6.4,2.87,6.4,6.4   C324.3,593.39,321.43,596.27,317.9,596.27z M317.9,586.06c-2.1,0-3.81,1.71-3.81,3.81c0,2.1,1.71,3.81,3.81,3.81   s3.81-1.71,3.81-3.81C321.71,587.76,320,586.06,317.9,586.06z"/>
</g>
<g>
	<path d="M265.25,160.63h-3.88v-5.16h9.64v29.16h-5.76V160.63z"/>
	<path d="M286.33,154.79c6,0,9.2,3.4,9.2,7.72c0,3.64-2.28,5.88-4.4,6.6v0.16c2.96,0.92,4.92,3.32,4.92,7.28   c0,4.76-3.36,8.28-9.48,8.28c-5.76,0-10.12-2.88-10.36-9h5.44c0.12,2.52,1.8,4.32,4.8,4.32c2.8,0,4.24-1.76,4.24-4.08   c0-3.28-2.08-4.48-6.24-4.48h-1.16v-4.6h1.16c3.28,0,5.68-0.92,5.68-3.8c0-2.28-1.4-3.64-3.96-3.64c-2.72,0-3.88,1.76-4.08,3.6   h-5.48C276.89,157.75,280.73,154.79,286.33,154.79z"/>
	<path d="M320.08,155.39v4.92h-12.96v6.84c1.08-1.32,3.28-2.36,5.72-2.36c6.8,0,9.12,5.12,9.12,9.64c0,5.96-3.44,10.2-10.08,10.2   c-6.28,0-9.88-3.48-10.36-8.24h5.44c0.48,2.04,2.12,3.52,4.84,3.52c3.28,0,4.76-2.32,4.76-5.4c0-3.28-1.64-5.08-4.8-5.08   c-2.32,0-3.8,1.28-4.4,3.08h-5.36v-17.12H320.08z"/>
</g>
<g>
	<path d="M330.88,163.54c-3.53,0-6.4-2.87-6.4-6.4s2.87-6.4,6.4-6.4s6.4,2.87,6.4,6.4S334.41,163.54,330.88,163.54z M330.88,153.33   c-2.1,0-3.81,1.71-3.81,3.81s1.71,3.81,3.81,3.81c2.1,0,3.81-1.71,3.81-3.81S332.98,153.33,330.88,153.33z"/>
</g>
<g>
	<path d="M797.31,215.24c6,0,9.2,3.4,9.2,7.72c0,3.64-2.28,5.88-4.4,6.6v0.16c2.96,0.92,4.92,3.32,4.92,7.28   c0,4.76-3.36,8.28-9.48,8.28c-5.76,0-10.12-2.88-10.36-9h5.44c0.12,2.52,1.8,4.32,4.8,4.32c2.8,0,4.24-1.76,4.24-4.08   c0-3.28-2.08-4.48-6.24-4.48h-1.16v-4.6h1.16c3.28,0,5.68-0.92,5.68-3.8c0-2.28-1.4-3.64-3.96-3.64c-2.72,0-3.88,1.76-4.08,3.6   h-5.48C787.87,218.2,791.71,215.24,797.31,215.24z"/>
	<path d="M822.27,215.36c8.24,0,10.8,6.32,10.8,14.76c0,8.52-2.56,14.88-10.8,14.88c-8.24,0-10.8-6.36-10.8-14.88   C811.47,221.68,814.03,215.36,822.27,215.36z M822.27,220.56c-4.72,0-5.28,4.56-5.28,9.56c0,5.2,0.56,9.68,5.28,9.68   c4.72,0,5.28-4.48,5.28-9.68C827.54,225.12,826.98,220.56,822.27,220.56z"/>
</g>
<g>
	<path d="M841.94,223.99c-3.53,0-6.4-2.87-6.4-6.4s2.87-6.4,6.4-6.4s6.4,2.87,6.4,6.4S845.46,223.99,841.94,223.99z M841.94,213.78   c-2.1,0-3.81,1.71-3.81,3.81s1.71,3.81,3.81,3.81s3.81-1.71,3.81-3.81S844.04,213.78,841.94,213.78z"/>
</g>
<g>
	<path d="M748.44,174.81h-14v-4.4l13.08-18.72h6.52v18.24h3.52v4.88h-3.52v5.68h-5.6V174.81z M748.8,169.93v-12.24l-8.2,12.24H748.8   z"/>
	<path d="M780.72,151.25v4.92h-12.96v6.84c1.08-1.32,3.28-2.36,5.72-2.36c6.8,0,9.12,5.12,9.12,9.64c0,5.96-3.44,10.2-10.08,10.2   c-6.28,0-9.88-3.48-10.36-8.24h5.44c0.48,2.04,2.12,3.52,4.84,3.52c3.28,0,4.76-2.32,4.76-5.4c0-3.28-1.64-5.08-4.8-5.08   c-2.32,0-3.8,1.28-4.4,3.08h-5.36v-17.12H780.72z"/>
</g>
<g>
	<path d="M791.51,159.4c-3.53,0-6.4-2.87-6.4-6.4s2.87-6.4,6.4-6.4c3.53,0,6.4,2.87,6.4,6.4S795.04,159.4,791.51,159.4z    M791.51,149.19c-2.1,0-3.81,1.71-3.81,3.81s1.71,3.81,3.81,3.81c2.1,0,3.81-1.71,3.81-3.81S793.61,149.19,791.51,149.19z"/>
</g>
<g>
	<path d="M688.39,112.41c-0.52-2.16-1.68-3.36-4.2-3.36c-3.64,0-5.32,2.72-5.4,9.44c1.32-2.2,3.96-3.4,6.8-3.4   c5.2,0,8.84,3.44,8.84,9.52c0,5.64-3.48,9.76-9.72,9.76c-8.64,0-10.8-6.08-10.8-15.12c0-9.52,3.08-14.8,10.48-14.8   c5.96,0,8.76,3.84,9.2,7.96H688.39z M679.31,124.53c0,3.12,1.84,5.08,5.12,5.08c2.88,0,4.68-1.88,4.68-4.88c0-3-1.56-5.04-4.8-5.04   C681.71,119.69,679.31,121.21,679.31,124.53z"/>
	<path d="M709.67,104.57c8.24,0,10.8,6.32,10.8,14.76c0,8.52-2.56,14.88-10.8,14.88s-10.8-6.36-10.8-14.88   C698.87,110.89,701.43,104.57,709.67,104.57z M709.67,109.77c-4.72,0-5.28,4.56-5.28,9.56c0,5.2,0.56,9.68,5.28,9.68   c4.72,0,5.28-4.48,5.28-9.68C714.95,114.33,714.39,109.77,709.67,109.77z"/>
</g>
<g>
	<path d="M729.34,113.2c-3.53,0-6.4-2.87-6.4-6.4s2.87-6.4,6.4-6.4c3.53,0,6.4,2.87,6.4,6.4S732.87,113.2,729.34,113.2z    M729.34,102.99c-2.1,0-3.81,1.71-3.81,3.81s1.71,3.81,3.81,3.81c2.1,0,3.81-1.71,3.81-3.81S731.44,102.99,729.34,102.99z"/>
</g>
<g>
	<path d="M764.17,427.06l-6.1-14.92l-1.54,0.93c-0.71,0.43-1.63,0.2-2.06-0.51s-0.2-1.63,0.51-2.06l4.54-2.73l4.88,11.94   l12.68-26.14h17.46c0.83,0,1.5,0.67,1.5,1.5s-0.67,1.5-1.5,1.5h-15.58L764.17,427.06z"/>
</g>
<g>
	<path d="M794.54,429.79h-38.78c-0.55,0-1-0.45-1-1s0.45-1,1-1h38.78c0.55,0,1,0.45,1,1S795.09,429.79,794.54,429.79z"/>
</g>
<g>
	<path d="M670.44,403.7h-3.23v-4.3h8.03v24.29h-4.8V403.7z"/>
</g>
<g>
	<path d="M663.33,454.12c5.5-4.67,11.26-8.96,11.26-13.43c0-2.17-0.97-3.63-3.27-3.63c-2.23,0-3.47,1.6-3.5,4.17h-4.53   c0.17-5.57,3.73-8.13,8.1-8.13c5.23,0,7.86,3.1,7.86,7.33c0,5.63-5.43,10.03-9.3,13.3h9.83v3.87h-16.46V454.12z"/>
</g>
<g>
	<path d="M690.79,429.79H652c-0.55,0-1-0.45-1-1s0.45-1,1-1h38.78c0.55,0,1,0.45,1,1S691.34,429.79,690.79,429.79z"/>
</g>
<g>
	<g>
		<path d="M501.66,218.58h-3.23v-4.3h8.03v24.29h-4.8V218.58z"/>
	</g>
	<g>
		<path d="M494.55,269c5.5-4.67,11.26-8.96,11.26-13.43c0-2.17-0.97-3.63-3.27-3.63c-2.23,0-3.47,1.6-3.5,4.17h-4.53    c0.17-5.57,3.73-8.13,8.1-8.13c5.23,0,7.86,3.1,7.86,7.33c0,5.63-5.43,10.03-9.3,13.3h9.83v3.87h-16.46V269z"/>
	</g>
	<g>
		<path d="M522.01,244.67h-38.78c-0.55,0-1-0.45-1-1s0.45-1,1-1h38.78c0.55,0,1,0.45,1,1S522.56,244.67,522.01,244.67z"/>
	</g>
</g>
<g>
	<path d="M733.54,419.9c5.5-4.67,11.26-8.96,11.26-13.43c0-2.17-0.97-3.63-3.27-3.63c-2.23,0-3.47,1.6-3.5,4.17h-4.53   c0.17-5.56,3.73-8.13,8.1-8.13c5.23,0,7.86,3.1,7.86,7.33c0,5.63-5.43,10.03-9.3,13.3H750v3.87h-16.46V419.9z"/>
</g>
<g>
	<path d="M722.04,454.12c5.5-4.67,11.26-8.96,11.26-13.43c0-2.17-0.97-3.63-3.27-3.63c-2.23,0-3.47,1.6-3.5,4.17H722   c0.17-5.57,3.73-8.13,8.1-8.13c5.23,0,7.86,3.1,7.86,7.33c0,5.63-5.43,10.03-9.3,13.3h9.83v3.87h-16.46V454.12z"/>
</g>
<g>
	<path d="M719.12,427.06l-6.1-14.92l-1.54,0.93c-0.71,0.43-1.63,0.2-2.06-0.51s-0.2-1.63,0.51-2.06l4.54-2.73l4.88,11.94   l12.68-26.14h17.46c0.83,0,1.5,0.67,1.5,1.5s-0.67,1.5-1.5,1.5h-15.58L719.12,427.06z"/>
</g>
<g>
	<path d="M749.49,429.79h-38.78c-0.55,0-1-0.45-1-1s0.45-1,1-1h38.78c0.55,0,1,0.45,1,1S750.04,429.79,749.49,429.79z"/>
</g>
<g>
	<g>
		<path d="M506.05,172.29c5.5-4.67,11.26-8.96,11.26-13.43c0-2.17-0.97-3.63-3.27-3.63c-2.23,0-3.47,1.6-3.5,4.17h-4.53    c0.17-5.56,3.73-8.13,8.1-8.13c5.23,0,7.86,3.1,7.86,7.33c0,5.63-5.43,10.03-9.3,13.3h9.83v3.87h-16.46V172.29z"/>
	</g>
	<g>
		<path d="M494.55,206.51c5.5-4.67,11.26-8.96,11.26-13.43c0-2.17-0.97-3.63-3.27-3.63c-2.23,0-3.47,1.6-3.5,4.17h-4.53    c0.17-5.57,3.73-8.13,8.1-8.13c5.23,0,7.86,3.1,7.86,7.33c0,5.63-5.43,10.03-9.3,13.3h9.83v3.87h-16.46V206.51z"/>
	</g>
	<g>
		<path d="M491.63,179.45l-6.1-14.92l-1.54,0.93c-0.71,0.43-1.63,0.2-2.06-0.51c-0.43-0.71-0.2-1.63,0.51-2.06l4.54-2.73l4.88,11.94    l12.68-26.14h17.46c0.83,0,1.5,0.67,1.5,1.5s-0.67,1.5-1.5,1.5h-15.58L491.63,179.45z"/>
	</g>
	<g>
		<path d="M522.01,182.18h-38.78c-0.55,0-1-0.45-1-1s0.45-1,1-1h38.78c0.55,0,1,0.45,1,1S522.56,182.18,522.01,182.18z"/>
	</g>
</g>
<g>
	<g>
		<path d="M568.85,113.54c5,0,7.67,2.83,7.67,6.43c0,3.03-1.9,4.9-3.67,5.5v0.13c2.47,0.77,4.1,2.77,4.1,6.07    c0,3.97-2.8,6.9-7.9,6.9c-4.8,0-8.43-2.4-8.63-7.5h4.53c0.1,2.1,1.5,3.6,4,3.6c2.33,0,3.53-1.47,3.53-3.4    c0-2.73-1.73-3.73-5.2-3.73h-0.97v-3.83h0.97c2.73,0,4.73-0.77,4.73-3.17c0-1.9-1.17-3.03-3.3-3.03c-2.27,0-3.23,1.47-3.4,3h-4.56    C560.99,116,564.19,113.54,568.85,113.54z"/>
	</g>
	<g>
		<path d="M549.76,168.82c5.5-4.67,11.26-8.96,11.26-13.43c0-2.17-0.97-3.63-3.27-3.63c-2.23,0-3.47,1.6-3.5,4.17h-4.53    c0.17-5.57,3.73-8.13,8.1-8.13c5.23,0,7.86,3.1,7.86,7.33c0,5.63-5.43,10.03-9.3,13.3h9.83v3.87h-16.46V168.82z"/>
	</g>
	<g>
		<path d="M546.84,141.76l-6.1-14.92l-1.54,0.93c-0.71,0.43-1.63,0.2-2.06-0.51c-0.43-0.71-0.2-1.63,0.51-2.06l4.54-2.73l4.88,11.94    l12.68-26.14h17.46c0.83,0,1.5,0.67,1.5,1.5s-0.67,1.5-1.5,1.5h-15.58L546.84,141.76z"/>
	</g>
	<g>
		<path d="M577.21,144.49h-38.78c-0.55,0-1-0.45-1-1s0.45-1,1-1h38.78c0.55,0,1,0.45,1,1S577.77,144.49,577.21,144.49z"/>
	</g>
</g>
<g>
	<g>
		<g>
			<path d="M356.35,420.8c5.5-4.67,11.26-8.96,11.26-13.43c0-2.17-0.97-3.63-3.27-3.63c-2.23,0-3.47,1.6-3.5,4.17h-4.53     c0.17-5.56,3.73-8.13,8.1-8.13c5.23,0,7.86,3.1,7.86,7.33c0,5.63-5.43,10.03-9.3,13.3h9.83v3.87h-16.46V420.8z"/>
		</g>
		<g>
			<path d="M334.41,455.02c5.5-4.67,11.26-8.96,11.26-13.43c0-2.17-0.97-3.63-3.27-3.63c-2.23,0-3.47,1.6-3.5,4.17h-4.53     c0.17-5.57,3.73-8.13,8.1-8.13c5.23,0,7.86,3.1,7.86,7.33c0,5.63-5.43,10.03-9.3,13.3h9.83v3.87h-16.46V455.02z"/>
		</g>
		<g>
			<path d="M341.93,427.96l-6.1-14.92l-1.54,0.93c-0.71,0.43-1.63,0.2-2.06-0.51c-0.43-0.71-0.2-1.63,0.51-2.06l4.54-2.73     l4.88,11.94l12.68-26.14h17.46c0.83,0,1.5,0.67,1.5,1.5s-0.67,1.5-1.5,1.5h-15.58L341.93,427.96z"/>
		</g>
		<g>
			<path d="M372.31,430.69h-59.67c-0.55,0-1-0.45-1-1s0.45-1,1-1h59.67c0.55,0,1,0.45,1,1S372.86,430.69,372.31,430.69z"/>
		</g>
	</g>
	<g>
		<path d="M312.64,410.74h14.13v3.93h-14.13V410.74z"/>
	</g>
</g>
<g>
	<g>
		<g>
			<path d="M501.84,573.63c5.5-4.67,11.26-8.96,11.26-13.43c0-2.17-0.97-3.63-3.27-3.63c-2.23,0-3.47,1.6-3.5,4.17h-4.53     c0.17-5.56,3.73-8.13,8.1-8.13c5.23,0,7.86,3.1,7.86,7.33c0,5.63-5.43,10.03-9.3,13.3h9.83v3.87h-16.46V573.63z"/>
		</g>
		<g>
			<path d="M479.9,607.85c5.5-4.67,11.26-8.96,11.26-13.43c0-2.17-0.97-3.63-3.27-3.63c-2.23,0-3.47,1.6-3.5,4.17h-4.53     c0.17-5.57,3.73-8.13,8.1-8.13c5.23,0,7.86,3.1,7.86,7.33c0,5.63-5.43,10.03-9.3,13.3h9.83v3.87H479.9V607.85z"/>
		</g>
		<g>
			<path d="M487.43,580.8l-6.1-14.92l-1.54,0.93c-0.71,0.43-1.63,0.2-2.06-0.51c-0.43-0.71-0.2-1.63,0.51-2.06l4.54-2.73l4.88,11.94     l12.68-26.14h17.46c0.83,0,1.5,0.67,1.5,1.5s-0.67,1.5-1.5,1.5h-15.58L487.43,580.8z"/>
		</g>
		<g>
			<path d="M517.8,583.52h-59.67c-0.55,0-1-0.45-1-1s0.45-1,1-1h59.67c0.55,0,1,0.45,1,1S518.35,583.52,517.8,583.52z"/>
		</g>
	</g>
	<g>
		<path d="M458.13,563.57h14.13v3.93h-14.13V563.57z"/>
	</g>
</g>
</svg>